<svg width="35.000000" height="24.000000" viewBox="0 0 35 24" fill="none" xmlns="http://www.w3.org/2000/svg" xmlns:xlink="http://www.w3.org/1999/xlink">
	<desc>
			Created with Pixso.
	</desc>
	<defs/>
	<rect id="Icon" rx="0.000000" width="34.000000" height="23.000000" transform="translate(0.500000 0.500000)" fill="#FFFFFF" fill-opacity="0"/>
	<path id="Vector" d="M18.78 13.13L13.39 22.36L8 13.13L18.78 13.13ZM20.23 12.3L6.55 12.3L13.39 24L20.23 12.3Z" fill="#263238" fill-opacity="1.000000" fill-rule="nonzero"/>
	<path id="Vector" d="M28.15 1.65L33.55 10.88L22.76 10.88L28.15 1.65ZM28.15 0L21.31 11.69L35 11.69L28.15 0Z" fill="#263238" fill-opacity="1.000000" fill-rule="nonzero"/>
	<path id="Vector" d="M0 0L5.73 10.34L12 0.25L0 0Z" fill="#4CAF4F" fill-opacity="1.000000" fill-rule="nonzero"/>
	<path id="Vector" d="M13.39 0.9L19.41 11.18L7.36 11.18L13.39 0.9Z" fill="#4CAF4F" fill-opacity="1.000000" fill-rule="nonzero"/>
	<path id="Vector" d="M20.96 13.43L26.98 24L14.65 24L20.77 13.43L20.96 13.43Z" fill="#4CAF4F" fill-opacity="1.000000" fill-rule="nonzero"/>
	<path id="Vector" d="M22.26 12.79L28.15 23.19L34.13 12.79L22.26 12.79Z" fill="#4CAF4F" fill-opacity="1.000000" fill-rule="nonzero"/>
</svg>
